<svg width="24" height="24" viewBox="0 0 24 24" fill="none" xmlns="http://www.w3.org/2000/svg">
<path fill-rule="evenodd" clip-rule="evenodd" d="M21.0524 20.9707C18.5962 22.7813 15.0381 23.746 11.9771 23.746C7.67316 23.746 3.81448 22.158 0.887073 19.5126C0.664457 19.3048 0.864812 19.0228 1.13937 19.1823C4.29681 21.0189 8.20744 22.1246 12.2331 22.1246C15.1419 22.1098 18.0174 21.5235 20.6962 20.3956C21.1118 20.2175 21.4605 20.6665 21.0524 20.9707ZM22.0727 19.802C21.7611 19.4013 19.9987 19.6127 19.2084 19.7055C18.9672 19.7352 18.9301 19.5237 19.149 19.3753C20.5589 18.3883 22.8556 18.674 23.1227 19.0043C23.3899 19.3345 23.0522 21.646 21.7351 22.7479C21.531 22.9186 21.3381 22.8258 21.4383 22.6032C21.7351 21.8649 22.3992 20.2064 22.0839 19.8057" fill="#3D284F"/>
<path fill-rule="evenodd" clip-rule="evenodd" d="M13.7226 10.2886C13.7226 11.5427 13.756 12.5927 13.1216 13.7058C12.6021 14.6111 11.7859 15.1713 10.8917 15.1713C9.65616 15.1713 8.92894 14.2289 8.92894 12.8375C8.92894 10.0919 11.3889 9.59106 13.7226 9.59106V10.2886ZM16.9728 18.1432C16.7613 18.3325 16.4534 18.3473 16.2122 18.2212C15.1437 17.3344 14.947 16.9188 14.3645 16.0729C12.5984 17.8761 11.3406 18.4141 9.05138 18.4141C6.33546 18.4141 4.22803 16.7408 4.22803 13.3941C4.22803 10.7783 5.64164 8.99741 7.66374 8.12921C9.41128 7.35747 11.8563 7.2239 13.7226 7.01613V6.608C13.7226 5.84368 13.782 4.93466 13.3293 4.27424C12.9398 3.68059 12.1866 3.43571 11.5224 3.43571C10.2943 3.43571 9.2035 4.06646 8.93636 5.37248C8.88071 5.6693 8.66923 5.94757 8.37611 5.96241L5.24464 5.61364C4.98121 5.55428 4.6881 5.34279 4.76602 4.94579C5.4821 1.14276 8.91039 0 11.9751 0C13.5445 0 15.5926 0.415551 16.8281 1.60284C18.3976 3.0684 18.2454 5.02 18.2454 7.14599V12.1697C18.2454 13.6798 18.8725 14.3402 19.4587 15.1565C19.6628 15.4533 19.7073 15.7946 19.4439 16.0135C18.6128 16.7185 17.7891 17.4309 16.9728 18.1544V18.1469" fill="#3D284F"/>
</svg>
