<svg width="28" height="28" viewBox="0 0 28 28" fill="none" xmlns="http://www.w3.org/2000/svg">
<rect x="0.5" y="0.5" width="27" height="27" rx="3" fill="#3D284F"/>
<path d="M14.0003 23.4508C12.7246 23.4508 11.4871 23.2008 10.3219 22.708C9.19652 22.232 8.18596 21.5507 7.31829 20.6828C6.45062 19.8151 5.76931 18.8046 5.29332 17.6792C4.80029 16.514 4.55029 15.2765 4.55029 14.0008C4.55029 12.7251 4.80029 11.4876 5.29308 10.3224C5.76907 9.19701 6.45038 8.18645 7.31805 7.31878C8.18572 6.45111 9.19652 5.76956 10.3219 5.29357C11.4871 4.80078 12.7246 4.55078 14.0003 4.55078C15.276 4.55078 16.5135 4.80078 17.6787 5.29357C18.8041 5.76956 19.8146 6.45087 20.6823 7.31854C21.55 8.18621 22.2313 9.19701 22.7075 10.3221C23.2003 11.4873 23.4503 12.7251 23.4503 14.0005C23.4503 15.276 23.2003 16.5137 22.7075 17.679C22.2315 18.8043 21.5502 19.8149 20.6823 20.6825C19.8146 21.5502 18.8041 22.2315 17.6787 22.7078C16.5135 23.2005 15.2757 23.4505 14.0003 23.4505V23.4508ZM14.0003 5.19919C11.6492 5.19919 9.43908 6.11465 7.77674 7.77723C6.11441 9.43981 5.1987 11.6497 5.1987 14.0008C5.1987 16.3519 6.11417 18.562 7.77674 20.2243C9.43932 21.8867 11.6494 22.8024 14.0003 22.8024C16.3511 22.8024 18.5615 21.8869 20.2238 20.2243C21.8862 18.5618 22.8019 16.3516 22.8019 14.0008C22.8019 11.6499 21.8864 9.43957 20.2238 7.77723C18.5613 6.11489 16.3514 5.19919 14.0003 5.19919Z" fill="white"/>
<path d="M17.1112 9.17471C17.2873 9.14277 17.4434 9.18264 17.5795 9.29479C17.7157 9.40694 17.7837 9.55103 17.7837 9.72706V15.887C17.7837 16.4554 17.6235 16.8997 17.3034 17.2198C16.9832 17.532 16.5428 17.6881 15.9825 17.6881C15.5983 17.6881 15.282 17.588 15.0339 17.3879C14.7858 17.1797 14.6617 16.9196 14.6617 16.6074C14.6617 16.2153 14.8178 15.887 15.13 15.6228C15.4422 15.3586 15.8464 15.2266 16.3428 15.2266C16.527 15.2266 16.7229 15.2585 16.9311 15.3226C16.9391 15.3226 16.9472 15.3185 16.9551 15.3106C16.9631 15.3106 16.9672 15.3065 16.9672 15.2986V11.3361C16.9672 11.3121 16.9551 11.2921 16.9311 11.276C16.9071 11.252 16.8831 11.2441 16.8591 11.252L12.3562 12.1166C12.2921 12.1327 12.2602 12.1725 12.2602 12.2367V17.0877C12.2602 17.6562 12.1 18.1005 11.7799 18.4206C11.4597 18.7328 11.0193 18.8889 10.459 18.8889C10.0748 18.8889 9.7585 18.7849 9.51042 18.5767C9.26234 18.3766 9.13818 18.1204 9.13818 17.8082C9.13818 17.416 9.29428 17.0877 9.60648 16.8236C9.91868 16.5594 10.3229 16.4273 10.8193 16.4273C11.0034 16.4273 11.1994 16.4593 11.4076 16.5234C11.4155 16.5234 11.4237 16.5193 11.4316 16.5114C11.4396 16.5114 11.4436 16.5073 11.4436 16.4994V10.9278C11.4436 10.7278 11.5037 10.5515 11.6238 10.3995C11.7518 10.2393 11.9119 10.1432 12.1041 10.1113L17.1112 9.17471Z" fill="white"/>
</svg>
