<svg width="27" height="27" viewBox="0 0 27 27" fill="none" xmlns="http://www.w3.org/2000/svg">
<path d="M13.5336 4.6875C11.1318 4.6875 10.83 4.69783 9.88684 4.74094C8.94507 4.78405 8.3024 4.93315 7.74013 5.15186C7.15854 5.37775 6.66498 5.67999 6.17321 6.17175C5.68144 6.6635 5.3792 7.1566 5.1524 7.73818C4.93324 8.30089 4.78369 8.94354 4.74147 9.88483C4.69926 10.8284 4.68848 11.1297 4.68848 13.5319C4.68848 15.9341 4.69926 16.2345 4.74192 17.1776C4.78503 18.1194 4.93414 18.762 5.15285 19.3243C5.37875 19.9059 5.68099 20.3994 6.17276 20.8912C6.66408 21.3829 7.15764 21.6861 7.73878 21.9119C8.30151 22.1306 8.94462 22.2797 9.88594 22.3229C10.8295 22.366 11.1309 22.3763 13.5327 22.3763C15.9345 22.3763 16.2354 22.366 17.1789 22.3229C18.1207 22.2797 18.7638 22.1306 19.3265 21.9119C19.9081 21.6861 20.4008 21.3829 20.8921 20.8912C21.3839 20.3994 21.6861 19.9063 21.9129 19.3247C22.1303 18.762 22.2794 18.1194 22.3238 17.1781C22.3661 16.2345 22.3773 15.9341 22.3773 13.5319C22.3773 11.1297 22.3661 10.8284 22.3238 9.88528C22.2798 8.94354 22.1303 8.30089 21.9129 7.73863C21.6861 7.15705 21.3839 6.6635 20.8921 6.17175C20.4003 5.67999 19.9081 5.37775 19.3261 5.15186C18.7625 4.93315 18.1193 4.78405 17.1776 4.74094C16.234 4.69783 15.934 4.6875 13.5309 4.6875H13.5336ZM12.74 6.28132C12.9753 6.28132 13.238 6.28132 13.5336 6.28132C15.8949 6.28132 16.1752 6.28986 17.1075 6.33207C17.9698 6.37159 18.4378 6.51575 18.7499 6.63656C19.1626 6.79688 19.4568 6.98864 19.7662 7.29807C20.0756 7.60749 20.2674 7.90254 20.4282 8.31526C20.5494 8.62648 20.6936 9.09488 20.7327 9.95714C20.7749 10.8894 20.7843 11.1697 20.7843 13.5301C20.7843 15.8905 20.7749 16.1703 20.7327 17.1031C20.6931 17.9653 20.549 18.4333 20.4282 18.745C20.2678 19.1577 20.0761 19.4514 19.7662 19.7608C19.4568 20.0702 19.1626 20.262 18.7499 20.4223C18.4387 20.544 17.9702 20.6877 17.1075 20.7272C16.1752 20.7695 15.8949 20.7789 13.5336 20.7789C11.1722 20.7789 10.8919 20.7695 9.95959 20.7272C9.09732 20.6873 8.62935 20.5436 8.31723 20.4223C7.9045 20.262 7.60944 20.0702 7.30001 19.7608C6.99058 19.4514 6.79881 19.1572 6.63803 18.7441C6.51677 18.4328 6.37261 17.9644 6.33354 17.1022C6.29132 16.1699 6.28279 15.8896 6.28279 13.5279C6.28279 11.1661 6.29132 10.8877 6.33354 9.95489C6.37306 9.09264 6.51722 8.62468 6.63803 8.31256C6.79836 7.89985 6.99013 7.6048 7.30001 7.29537C7.60944 6.98595 7.9045 6.79419 8.31723 6.63341C8.6289 6.51171 9.09732 6.368 9.95959 6.32848C10.7756 6.29165 11.0918 6.28043 12.74 6.27863V6.28088V6.28132ZM18.2545 7.74985C17.6684 7.74985 17.1933 8.22499 17.1933 8.81106C17.1933 9.39712 17.6684 9.87226 18.2545 9.87226C18.8406 9.87226 19.3157 9.39712 19.3157 8.81106C19.3157 8.22454 18.8401 7.7494 18.2545 7.7494V7.74985ZM13.5336 8.98979C11.0253 8.98979 8.99133 11.0233 8.99133 13.5319C8.99133 16.0405 11.0249 18.0731 13.5336 18.0731C16.0418 18.0731 18.0749 16.0405 18.0749 13.5319C18.0749 11.0233 16.0413 8.98979 13.5331 8.98979H13.5336ZM13.5336 10.5836C15.1615 10.5836 16.4819 11.9035 16.4819 13.5319C16.4819 15.1603 15.162 16.4802 13.5336 16.4802C11.9051 16.4802 10.5852 15.1603 10.5852 13.5319C10.5852 11.9035 11.9051 10.5836 13.5336 10.5836Z" fill="#534B6B"/>
</svg>
