<svg width="27" height="27" viewBox="0 0 27 27" fill="none" xmlns="http://www.w3.org/2000/svg">
<path fill-rule="evenodd" clip-rule="evenodd" d="M9.47161 21.2706H6.00045V10.8274H9.47161V21.2706ZM7.73603 9.40204H7.7131C6.54869 9.40204 5.79395 8.59984 5.79395 7.59715C5.79395 6.57245 6.57075 5.79297 7.75876 5.79297C8.94702 5.79297 9.67724 6.57245 9.69997 7.59715C9.69997 8.59984 8.94702 9.40204 7.73603 9.40204ZM21.9913 21.2706H18.5192V15.6835C18.5192 14.2802 18.0175 13.3223 16.7609 13.3223C15.8012 13.3223 15.2309 13.9672 14.9796 14.592C14.8883 14.8151 14.8644 15.1254 14.8644 15.4383V21.2707H11.3917C11.3917 21.2707 11.4382 11.8072 11.3917 10.8275H14.8644V12.3073C15.3258 11.5973 16.1492 10.5823 17.9937 10.5823C20.2786 10.5823 21.9913 12.0745 21.9913 15.282V21.2706Z" fill="#534B6B"/>
</svg>
