<svg width="150" height="16" viewBox="0 0 150 16" fill="none" xmlns="http://www.w3.org/2000/svg">
<path d="M0.244766 8.02C0.244766 6.66 0.551432 5.44 1.16477 4.36C1.7781 3.26667 2.61143 2.41333 3.66477 1.8C4.73143 1.18667 5.91143 0.879999 7.20477 0.879999C8.72477 0.879999 10.0514 1.24667 11.1848 1.98C12.3181 2.71333 13.1448 3.75333 13.6648 5.1H11.4848C11.0981 4.26 10.5381 3.61333 9.80477 3.16C9.08477 2.70667 8.2181 2.48 7.20477 2.48C6.23143 2.48 5.3581 2.70667 4.58477 3.16C3.81143 3.61333 3.20477 4.26 2.76477 5.1C2.32477 5.92667 2.10477 6.9 2.10477 8.02C2.10477 9.12667 2.32477 10.1 2.76477 10.94C3.20477 11.7667 3.81143 12.4067 4.58477 12.86C5.3581 13.3133 6.23143 13.54 7.20477 13.54C8.2181 13.54 9.08477 13.32 9.80477 12.88C10.5381 12.4267 11.0981 11.78 11.4848 10.94H13.6648C13.1448 12.2733 12.3181 13.3067 11.1848 14.04C10.0514 14.76 8.72477 15.12 7.20477 15.12C5.91143 15.12 4.73143 14.82 3.66477 14.22C2.61143 13.6067 1.7781 12.76 1.16477 11.68C0.551432 10.6 0.244766 9.38 0.244766 8.02ZM27.114 1.06V15H25.294V8.68H18.194V15H16.374V1.06H18.194V7.18H25.294V1.06H27.114ZM38.4616 11.9H32.3816L31.2616 15H29.3416L34.3816 1.14H36.4816L41.5016 15H39.5816L38.4616 11.9ZM37.9416 10.42L35.4216 3.38L32.9016 10.42H37.9416ZM55.2182 1.06L49.9582 15H47.8582L42.5982 1.06H44.5382L48.9182 13.08L53.2982 1.06H55.2182ZM65.4538 11.9H59.3738L58.2538 15H56.3338L61.3738 1.14H63.4738L68.4938 15H66.5738L65.4538 11.9ZM64.9338 10.42L62.4138 3.38L59.8938 10.42H64.9338ZM72.5104 13.52H77.3904V15H70.6904V1.06H72.5104V13.52ZM81.1432 1.06V15H79.3232V1.06H81.1432ZM92.8251 1.06V2.54H89.0251V15H87.2051V2.54H83.3851V1.06H92.8251ZM108.977 1.06V2.54H105.177V15H103.357V2.54H99.5374V1.06H108.977ZM115.638 15.14C114.718 15.14 113.891 14.98 113.158 14.66C112.438 14.3267 111.871 13.8733 111.458 13.3C111.044 12.7133 110.831 12.04 110.818 11.28H112.758C112.824 11.9333 113.091 12.4867 113.558 12.94C114.038 13.38 114.731 13.6 115.638 13.6C116.504 13.6 117.184 13.3867 117.678 12.96C118.184 12.52 118.438 11.96 118.438 11.28C118.438 10.7467 118.291 10.3133 117.998 9.98C117.704 9.64667 117.338 9.39333 116.898 9.22C116.458 9.04667 115.864 8.86 115.118 8.66C114.198 8.42 113.458 8.18 112.898 7.94C112.351 7.7 111.878 7.32667 111.478 6.82C111.091 6.3 110.898 5.60667 110.898 4.74C110.898 3.98 111.091 3.30667 111.478 2.72C111.864 2.13333 112.404 1.68 113.098 1.36C113.804 1.04 114.611 0.879999 115.518 0.879999C116.824 0.879999 117.891 1.20667 118.718 1.86C119.558 2.51333 120.031 3.38 120.138 4.46H118.138C118.071 3.92667 117.791 3.46 117.298 3.06C116.804 2.64667 116.151 2.44 115.338 2.44C114.578 2.44 113.958 2.64 113.478 3.04C112.998 3.42667 112.758 3.97333 112.758 4.68C112.758 5.18667 112.898 5.6 113.178 5.92C113.471 6.24 113.824 6.48667 114.238 6.66C114.664 6.82 115.258 7.00667 116.018 7.22C116.938 7.47333 117.678 7.72667 118.238 7.98C118.798 8.22 119.278 8.6 119.678 9.12C120.078 9.62667 120.278 10.32 120.278 11.2C120.278 11.88 120.098 12.52 119.738 13.12C119.378 13.72 118.844 14.2067 118.138 14.58C117.431 14.9533 116.598 15.14 115.638 15.14ZM131.196 11.9H125.116L123.996 15H122.076L127.116 1.14H129.216L134.236 15H132.316L131.196 11.9ZM130.676 10.42L128.156 3.38L125.636 10.42H130.676ZM142.753 15.14C141.459 15.14 140.279 14.84 139.213 14.24C138.146 13.6267 137.299 12.78 136.673 11.7C136.059 10.6067 135.753 9.38 135.753 8.02C135.753 6.66 136.059 5.44 136.673 4.36C137.299 3.26667 138.146 2.42 139.213 1.82C140.279 1.20667 141.459 0.899999 142.753 0.899999C144.059 0.899999 145.246 1.20667 146.313 1.82C147.379 2.42 148.219 3.26 148.833 4.34C149.446 5.42 149.753 6.64667 149.753 8.02C149.753 9.39333 149.446 10.62 148.833 11.7C148.219 12.78 147.379 13.6267 146.313 14.24C145.246 14.84 144.059 15.14 142.753 15.14ZM142.753 13.56C143.726 13.56 144.599 13.3333 145.373 12.88C146.159 12.4267 146.773 11.78 147.213 10.94C147.666 10.1 147.893 9.12667 147.893 8.02C147.893 6.9 147.666 5.92667 147.213 5.1C146.773 4.26 146.166 3.61333 145.393 3.16C144.619 2.70667 143.739 2.48 142.753 2.48C141.766 2.48 140.886 2.70667 140.113 3.16C139.339 3.61333 138.726 4.26 138.273 5.1C137.833 5.92667 137.613 6.9 137.613 8.02C137.613 9.12667 137.833 10.1 138.273 10.94C138.726 11.78 139.339 12.4267 140.113 12.88C140.899 13.3333 141.779 13.56 142.753 13.56Z" fill="#3D284F"/>
</svg>
