<svg xmlns="http://www.w3.org/2000/svg" width="150" height="16" fill="none" viewBox="0 0 150 16"><path fill="currentColor" d="M.245 8.02c0-1.36.306-2.58.92-3.66a6.686 6.686 0 0 1 2.5-2.56C4.73 1.187 5.91.88 7.205.88c1.52 0 2.846.367 3.98 1.1 1.133.733 1.96 1.773 2.48 3.12h-2.18c-.387-.84-.947-1.487-1.68-1.94-.72-.453-1.587-.68-2.6-.68-.974 0-1.847.227-2.62.68-.774.453-1.38 1.1-1.82 1.94-.44.827-.66 1.8-.66 2.92 0 1.107.22 2.08.66 2.92a4.77 4.77 0 0 0 1.82 1.92c.773.453 1.646.68 2.62.68 1.013 0 1.88-.22 2.6-.66.733-.453 1.293-1.1 1.68-1.94h2.18c-.52 1.333-1.347 2.367-2.48 3.1-1.134.72-2.46 1.08-3.98 1.08-1.294 0-2.474-.3-3.54-.9a6.725 6.725 0 0 1-2.5-2.54C.55 10.6.245 9.38.245 8.02Zm26.869-6.96V15h-1.82V8.68h-7.1V15h-1.82V1.06h1.82v6.12h7.1V1.06h1.82ZM38.462 11.9h-6.08l-1.12 3.1h-1.92l5.04-13.86h2.1L41.502 15h-1.92l-1.12-3.1Zm-.52-1.48-2.52-7.04-2.52 7.04h5.04Zm17.276-9.36L49.958 15h-2.1l-5.26-13.94h1.94l4.38 12.02 4.38-12.02h1.92ZM65.454 11.9h-6.08l-1.12 3.1h-1.92l5.04-13.86h2.1L68.494 15h-1.92l-1.12-3.1Zm-.52-1.48-2.52-7.04-2.52 7.04h5.04Zm7.576 3.1h4.88V15h-6.7V1.06h1.82v12.46Zm8.633-12.46V15h-1.82V1.06h1.82Zm11.682 0v1.48h-3.8V15h-1.82V2.54h-3.82V1.06h9.44Zm16.152 0v1.48h-3.8V15h-1.82V2.54h-3.82V1.06h9.44Zm6.661 14.08c-.92 0-1.747-.16-2.48-.48-.72-.333-1.287-.787-1.7-1.36-.414-.587-.627-1.26-.64-2.02h1.94a2.61 2.61 0 0 0 .8 1.66c.48.44 1.173.66 2.08.66.866 0 1.546-.213 2.04-.64.506-.44.76-1 .76-1.68 0-.533-.147-.967-.44-1.3a2.816 2.816 0 0 0-1.1-.76c-.44-.173-1.034-.36-1.78-.56-.92-.24-1.66-.48-2.22-.72a3.684 3.684 0 0 1-1.42-1.12c-.387-.52-.58-1.213-.58-2.08 0-.76.193-1.433.58-2.02.386-.587.926-1.04 1.62-1.36.706-.32 1.513-.48 2.42-.48 1.306 0 2.373.327 3.2.98.84.653 1.313 1.52 1.42 2.6h-2c-.067-.533-.347-1-.84-1.4-.494-.413-1.147-.62-1.96-.62-.76 0-1.38.2-1.86.6-.48.387-.72.933-.72 1.64 0 .507.14.92.42 1.24.293.32.646.567 1.06.74.426.16 1.02.347 1.78.56.92.253 1.66.507 2.22.76.56.24 1.04.62 1.44 1.14.4.507.6 1.2.6 2.08 0 .68-.18 1.32-.54 1.92-.36.6-.894 1.087-1.6 1.46-.707.373-1.54.56-2.5.56Zm15.558-3.24h-6.08l-1.12 3.1h-1.92l5.04-13.86h2.1l5.02 13.86h-1.92l-1.12-3.1Zm-.52-1.48-2.52-7.04-2.52 7.04h5.04Zm12.077 4.72c-1.294 0-2.474-.3-3.54-.9a6.821 6.821 0 0 1-2.54-2.54c-.614-1.093-.92-2.32-.92-3.68 0-1.36.306-2.58.92-3.66a6.634 6.634 0 0 1 2.54-2.54c1.066-.613 2.246-.92 3.54-.92 1.306 0 2.493.307 3.56.92a6.548 6.548 0 0 1 2.52 2.52c.613 1.08.92 2.307.92 3.68 0 1.373-.307 2.6-.92 3.68a6.691 6.691 0 0 1-2.52 2.54c-1.067.6-2.254.9-3.56.9Zm0-1.58c.973 0 1.846-.227 2.62-.68.786-.453 1.4-1.1 1.84-1.94.453-.84.68-1.813.68-2.92 0-1.12-.227-2.093-.68-2.92-.44-.84-1.047-1.487-1.82-1.94-.774-.453-1.654-.68-2.64-.68-.987 0-1.867.227-2.64.68-.774.453-1.387 1.1-1.84 1.94-.44.827-.66 1.8-.66 2.92 0 1.107.22 2.08.66 2.92.453.84 1.066 1.487 1.84 1.94.786.453 1.666.68 2.64.68Z"/></svg>