<svg width="28" height="28" viewBox="0 0 28 28" fill="none" xmlns="http://www.w3.org/2000/svg">
<path d="M14 0.5C6.53281 0.5 0.5 6.54969 0.5 14C0.5 21.4503 6.54969 27.5 14 27.5C21.4503 27.5 27.5 21.4503 27.5 14C27.5 6.54969 21.4503 0.5 14 0.5ZM20.1931 19.9822C19.9527 20.3872 19.4338 20.4969 19.033 20.2564C15.8563 18.32 11.8695 17.8855 7.16141 18.9486C6.71 19.0456 6.25859 18.7714 6.16156 18.32C6.06453 17.8686 6.33875 17.4172 6.79016 17.3202C11.937 16.1431 16.3541 16.6409 19.902 18.822C20.3028 19.0625 20.4336 19.5772 20.1931 19.978C20.1931 19.978 20.1931 19.978 20.1931 19.9822ZM21.8384 16.3034C21.5305 16.8055 20.885 16.9489 20.3872 16.6578C16.7591 14.4303 11.2241 13.7848 6.93359 15.0758C6.36828 15.2361 5.79031 14.9323 5.62578 14.3839C5.46547 13.8186 5.76922 13.2406 6.33453 13.0761C11.2367 11.5911 17.3328 12.3041 21.5136 14.8648C21.9988 15.1559 22.1422 15.8014 21.8342 16.2992L21.8384 16.3034ZM21.9819 12.4644C17.6281 9.8825 10.4478 9.64203 6.28813 10.8992C5.62578 11.1102 4.91703 10.722 4.70609 10.0597C4.49516 9.39734 4.88328 8.68859 5.54563 8.47766C10.3212 7.02641 18.2567 7.3175 23.2559 10.2833C23.855 10.6377 24.0448 11.4139 23.6905 12.0088C23.3698 12.6205 22.5767 12.8145 21.9819 12.4602V12.4644Z" fill="#3D284F"/>
</svg>
