<svg width="27" height="27" viewBox="0 0 27 27" fill="none" xmlns="http://www.w3.org/2000/svg">
<path fill-rule="evenodd" clip-rule="evenodd" d="M22.3773 8.57727C21.7363 8.85199 21.0342 9.0504 20.3016 9.14197C21.0647 8.68411 21.6294 7.99731 21.9042 7.15789C21.2021 7.56997 20.4237 7.87521 19.5843 8.02783C18.928 7.32578 17.9818 6.89844 16.9287 6.89844C14.9294 6.89844 13.2963 8.50096 13.2963 10.4698C13.2963 10.7598 13.3421 11.0192 13.4031 11.2787C10.3812 11.1413 7.71038 9.72193 5.92471 7.55471C5.61947 8.08888 5.42106 8.69937 5.42106 9.35564C5.42106 10.6071 6.07733 11.6907 7.03884 12.3318C6.44362 12.3318 5.89418 12.1639 5.4058 11.8892V11.9349C5.4058 12.3928 5.49737 12.8201 5.64999 13.217C6.09259 14.3464 7.09989 15.1858 8.32086 15.43C8.00036 15.5215 7.69512 15.5673 7.35935 15.5673C7.13042 15.5673 6.90148 15.5368 6.67255 15.491C7.14568 16.9104 8.47348 17.9482 10.0607 17.9787C8.80925 18.9403 7.25251 19.505 5.55842 19.505C5.25318 19.505 4.97846 19.4897 4.68848 19.4592C6.30626 20.4665 8.21403 21.0617 10.2592 21.0617C15.9367 21.0617 19.4317 17.1393 20.3474 13.0643C20.5153 12.3318 20.5916 11.6144 20.5916 10.9124V10.4545C21.2937 9.95086 21.9194 9.30985 22.3925 8.6078L22.3773 8.57727Z" fill="#534B6B"/>
</svg>
